<svg _ngcontent-ng-c1741549328="" svg-click="" version="1.1" id="Ext_Truck" xmlns="http://www.w3.org/2000/svg" xmlns:xlink="http://www.w3.org/1999/xlink" x="0px" y="0px" viewBox="0 0 240 240" xml:space="preserve" style="enable-background: new 0 0 240 240;"><polygon _ngcontent-ng-c1741549328="" type="Front Glass" side="Left" svgClickedVal="left front glass" points="74.9,69.5 74.9,108.1 92.1,108.1 92.1,83.7 92.1,83.7 " class="ExtSVGElem"></polygon><path _ngcontent-ng-c1741549328="" type="Windshield" side="" svgClickedVal="windshield" d="M120.2,62.3c-0.5,0-1,0-1.5,0c-0.5,0-1,0-1.5,0c-18.1,0-31.8,1.7-42.1,4.4l19.3,15.8 c7-0.6,14.7-1,22.8-1c0.5,0,1,0,1.5,0c0.5,0,1,0,1.5,0c8.1,0,15.8,0.3,22.8,1l19.3-15.8C152,64,138.2,62.3,120.2,62.3z" class="ExtSVGElem"></path><path _ngcontent-ng-c1741549328="" type="Rear Window" side="" svgClickedVal="rear window" d="M119.6,154.5c-0.4,0-0.7,0-1,0c-0.3,0-0.7,0-1,0c-12.4,0-20.8-1.7-27.8-4.4l5.4-16.8 c4.8,0.6,16.9,1,22.5,1c0.4,0,0.7,0,1,0c0.3,0,0.7,0,1,0c5.6,0,17.7-0.3,22.5-1l6.4,16.8C141.4,152.8,132,154.5,119.6,154.5z" class="ExtSVGElem"></path><rect _ngcontent-ng-c1741549328="" variable="roof" id="ext_roof" type="Roof" side="" svgClickedVal="roof" x="95.8" y="84.8" width="45.9" height="46.4" class="ExtSVGElem enabled"></rect><rect _ngcontent-ng-c1741549328="" variable="tailgate" id="ext_tail-gate" type="Tail Gate" side="" svgClickedVal="tail gate" x="77.3" y="210.5" width="85" height="8.4" class="ExtSVGElem enabled"></rect><rect _ngcontent-ng-c1741549328="" variable="trunk" id="ext_trunk" type="Trunk/Tailgate" side="" svgClickedVal="trunk" x="77.3" y="157.1" width="85" height="51.2" class="ExtSVGElem enabled"></rect><g _ngcontent-ng-c1741549328=""><g _ngcontent-ng-c1741549328=""><g _ngcontent-ng-c1741549328=""><path _ngcontent-ng-c1741549328="" variable="hood" id="ext_hood" type="Hood" side="" svgClickedVal="hood" d="M116.9,60.9c0.6,0,1.1,0,1.7,0c0.6,0,1.1,0,1.7,0c17.8,0,37.9,3,37.9,3c2.7,0.4,4.6-1.4,4.2-4 l-6.1-31.6c-0.4-2.6-3-4.7-5.8-4.7H85.7c-2.8,0-5.3,2.1-5.7,4.8l-5.3,31.6c-0.4,2.6,1.6,4.4,4.3,4C79,63.9,99.1,60.9,116.9,60.9z" class="ExtSVGElem enabled"></path></g></g></g><g _ngcontent-ng-c1741549328=""><g _ngcontent-ng-c1741549328=""><path _ngcontent-ng-c1741549328="" variable="leftFender" id="ext_left-front-fender" type="Front Fender" side="left" svgClickedVal="fender" d="M67.3,21.1c-0.3-2.2-1.9-4-3.5-4c-1.7,0-4.8-0.2-7-0.4l-12.2-1.2 c-2.2-0.2-4.7-0.4-5.5-0.4s-1.5,1.8-1.5,4v0.5c0,2.2,0.9,3.9,2,3.7c0,0,0,0,1,0c9,0,16.3,7.3,16.3,16.3c0,9-7.3,16.3-16.3,16.3 c-1,0-1,0-1,0c-1.1-0.2-2,1.5-2,3.7v0.3c0,2.2,0.7,4,1.5,4s3.3,0,5.5,0h21.2c2.2,0,4.7,0,5.5,0s1.3-1.8,1-4L67.3,21.1z" class="ExtSVGElem enabled"></path></g><circle _ngcontent-ng-c1741549328="" id="ext_left-front-wheel" type="Front Wheel" side="left" svgClickedVal="wheel" cx="40.6" cy="39.5" r="14.6" class="ExtSVGElem"></circle><g _ngcontent-ng-c1741549328=""><path _ngcontent-ng-c1741549328="" variable="leftQuarterPanel" id="ext_left-rear-fender" type="Quarter Panel" side="left" svgClickedVal="fender" d="M73.5,212.5c0,2.2-1.8,4.1-4,4.3l-4,0.3c-2.2,0.2-5.8,0.4-8,0.6l-10.2,0.6 c-2.2,0.1-4.7,0.2-5.5,0.2s-1.5-1.2-1.5-2.8s0.9-2.6,2-2.5c0,0,0,0,1,0c9,0,16.3-7.3,16.3-16.3c0-9-7.3-16.3-16.3-16.3 c-1,0-1,0-1,0c-1.1,0.2-2-1.5-2-3.7v-16.3c0-2.2,0.7-4,1.5-4s3.3,0,5.5,0h19.2c2.2,0,4.7,0,5.5,0s1.5,1.8,1.5,4L73.5,212.5 L73.5,212.5L73.5,212.5z" class="ExtSVGElem enabled"></path></g><circle _ngcontent-ng-c1741549328="" id="ext_left-rear-wheel" type="Rear Wheel" side="left" svgClickedVal="wheel" cx="43.3" cy="197.1" r="14.6" class="ExtSVGElem"></circle><g _ngcontent-ng-c1741549328=""><g _ngcontent-ng-c1741549328=""><path _ngcontent-ng-c1741549328="" variable="leftRunningBoard" id="ext_left-running-boards" type="Running Board" side="Left" svgClickedVal="running boards" d="M14.3,148.1c0,1.2-1.2,2.3-2.6,2.3s-2.6-1-2.6-2.3V70c0-1.2,1.2-2.3,2.6-2.3 s2.6,1,2.6,2.3V148.1z" class="ExtSVGElem enabled"></path></g><g _ngcontent-ng-c1741549328=""><path _ngcontent-ng-c1741549328="" variable="leftRocker" id="ext_left-rocker" type="Rocker" side="left" svgClickedVal="rockers" d="M30.6,140.4c0,1.2-1.7,2.3-3.9,2.3s-3.9-1-3.9-2.3V75.3c0-1.2,1.7-2.3,3.9-2.3 s3.9,1,3.9,2.3V140.4z" class="ExtSVGElem enabled"></path></g><g _ngcontent-ng-c1741549328=""><path _ngcontent-ng-c1741549328="" variable="leftRearDoor" id="ext_left-back-door" type="Back Door" side="Left" svgClickedVal="doors" d="M72.2,146.8c0,2.8-2.2,5-5,5H44.9c-2.8,0-5-2.2-5-5v-32.7c0-2.8,2.2-5,5-5h22.4 c2.8,0,5,2.2,5,5V146.8z" class="ExtSVGElem enabled"></path></g><g _ngcontent-ng-c1741549328=""><g _ngcontent-ng-c1741549328=""><path _ngcontent-ng-c1741549328="" variable="leftMirror" id="ext_left-mirror" type="Mirror" side="Left" svgClickedVal="mirror" d="M71.3,74c0,3.5-2.9,6.4-6.4,6.4c-3.5,0-6.4-2.9-6.4-6.4v-4.1 c0-3.5,2.9-3.4,6.4-3.4c3.5,0,6.4-0.1,6.4,3.4V74z" class="ExtSVGElem enabled"></path></g><path _ngcontent-ng-c1741549328="" variable="leftFrontDoor" type="Front Door" side="left" svgClickedVal="doors" id="ext_left-front-door" d="M64.7,83.7c-4.9,0-8.9-4-8.9-8.9v-8h-11c-2.8,0-5,2.2-5,5v29.7c0,2.8,2.2,5,5,5h22.4c2.8,0,5-2.2,5-5h0v-22 C70.7,82,67.9,83.7,64.7,83.7z" class="ExtSVGElem enabled"></path></g></g></g><g _ngcontent-ng-c1741549328=""><g _ngcontent-ng-c1741549328=""><path _ngcontent-ng-c1741549328="" variable="rightFender" id="ext_right-front-fender" type="Front Fender" side="right" svgClickedVal="fender" d="M168,60c-0.3,2.2,0.2,4,1,4s3.3,0,5.5,0h21.2c2.2,0,4.7,0,5.5,0s1.5-1.8,1.5-4 v-0.3c0-2.2-0.9-3.9-2-3.7c0,0,0,0-1,0c-9,0-16.3-7.3-16.3-16.3c0-9,7.3-16.3,16.3-16.3c1,0,1,0,1,0c1.1,0.2,2-1.5,2-3.7v-0.5 c0-2.2-0.7-4-1.5-4c-0.8,0-3.3,0.2-5.5,0.4l-12.2,1.2c-2.2,0.2-5.3,0.4-7,0.4s-3.2,1.8-3.5,4L168,60z" class="ExtSVGElem enabled"></path></g><circle _ngcontent-ng-c1741549328="" id="ext_right-front-wheel" type="Front Wheel" side="right" svgClickedVal="wheel" cx="199.7" cy="39.5" r="14.6" class="ExtSVGElem"></circle><g _ngcontent-ng-c1741549328=""><path _ngcontent-ng-c1741549328="" variable="rightQuarterPanel" id="ext_right-rear-fender" type="Quarter Panel" side="right" svgClickedVal="fender" d="M166.8,212.5L166.8,212.5l0-51.8c0-2.2,0.7-4,1.5-4s3.3,0,5.5,0H193
            c2.2,0,4.7,0,5.5,0s1.5,1.8,1.5,4V177c0,2.2-0.9,3.9-2,3.7c0,0,0,0-1,0c-9,0-16.3,7.3-16.3,16.3c0,9,7.3,16.3,16.3,16.3
            c1,0,1,0,1,0c1.1-0.2,2,1,2,2.5s-0.7,2.8-1.5,2.8c-0.8,0-3.3-0.1-5.5-0.2l-10.2-0.6c-2.2-0.1-5.8-0.4-8-0.6l-4-0.3
            C168.6,216.6,166.8,214.7,166.8,212.5L166.8,212.5z" class="ExtSVGElem enabled"></path></g><circle _ngcontent-ng-c1741549328="" id="ext_right-rear-wheel" type="Rear Wheel" side="right" svgClickedVal="wheel" cx="197" cy="197.1" r="14.6" class="ExtSVGElem"></circle><g _ngcontent-ng-c1741549328=""><g _ngcontent-ng-c1741549328=""><path _ngcontent-ng-c1741549328="" variable="rightRunningBoard" id="ext_right-running-boards" type="Running Board" side="Right" svgClickedVal="running boards" d="M226,70c0-1.2,1.2-2.3,2.6-2.3s2.6,1,2.6,2.3v78.1c0,1.2-1.2,2.3-2.6,2.3 s-2.6-1-2.6-2.3V70z" class="ExtSVGElem enabled"></path></g><g _ngcontent-ng-c1741549328=""><path _ngcontent-ng-c1741549328="" variable="rightRocker" id="ext_right-rocker" type="Rocker" side="right" svgClickedVal="rockers" d="M209.7,75.3c0-1.2,1.7-2.3,3.9-2.3s3.9,1,3.9,2.3v65.1c0,1.2-1.7,2.3-3.9,2.3 s-3.9-1-3.9-2.3V75.3z" class="ExtSVGElem enabled"></path></g><g _ngcontent-ng-c1741549328=""><path _ngcontent-ng-c1741549328="" variable="rightRearDoor" id="ext_right-back-door" type="Back Door" side="right" svgClickedVal="doors" d="M168.1,114.1c0-2.8,2.2-5,5-5h22.4c2.8,0,5,2.2,5,5v32.7c0,2.8-2.2,5-5,5h-22.4 c-2.8,0-5-2.2-5-5V114.1z" class="ExtSVGElem enabled"></path></g><g _ngcontent-ng-c1741549328=""><g _ngcontent-ng-c1741549328=""><path _ngcontent-ng-c1741549328="" variable="rightMirror" id="ext_right-mirror" type="Mirror" side="right" svgClickedVal="mirror" d="M169,69.9c0-3.5,2.9-3.4,6.4-3.4c3.5,0,6.4-0.1,6.4,3.4V74c0,3.5-2.9,6.4-6.4,6.4 c-3.5,0-6.4-2.9-6.4-6.4V69.9z" class="ExtSVGElem enabled"></path></g><path _ngcontent-ng-c1741549328="" variable="rightFrontDoor" type="Front Door" side="right" svgClickedVal="doors" id="ext_right-front-door" d="M175.6,83.7c4.9,0,8.9-4,8.9-8.9v-8h11c2.8,0,5,2.2,5,5v29.7c0,2.8-2.2,5-5,5h-22.4c-2.8,0-5-2.2-5-5h0v-22 C169.6,82,172.4,83.7,175.6,83.7z" class="ExtSVGElem enabled"></path></g></g></g><polygon _ngcontent-ng-c1741549328="" type="Front Glass" side="right" svgClickedVal="right front glass" points="163.3,69.5 163.3,108.1 146,108.1 146,83.7 146,83.7 " class="ExtSVGElem"></polygon><polygon _ngcontent-ng-c1741549328="" type="Back Glass" side="Left" svgClickedVal="left rear glass" points="74.9,149.1 74.9,110.5 92.1,110.5 92.1,135 92.1,135 " class="ExtSVGElem"></polygon><polygon _ngcontent-ng-c1741549328="" type="Back Glass" side="right" svgClickedVal="right rear glass" points="163.3,149.1 163.3,110.5 146,110.5 146,135 146,135 " class="ExtSVGElem"></polygon><g _ngcontent-ng-c1741549328=""><path _ngcontent-ng-c1741549328="" variable="rearBumper" id="ext_rear-bumper" type="Rear Bumper" side="" svgClickedVal="bumper" d="M82.4,220.5c-0.6,0-1,0.4-1,1v6.3c0,0.6,0.4,0,1,0h1.9c0.6,0,1,0.6,1,0v-0.6 c0-0.6,0.4-1,1-1h14.5c0.6,0,1,0.4,1,1v0.6c0,0.6,0.4,0,1,0h34.8c0.6,0,1,0.6,1,0v-0.6c0-0.6,0.4-1,1-1h14.5c0.6,0,1,0.4,1,1v0.6 c0,0.6,0.4,0,1,0h1.9c0.6,0,1,0.6,1,0v-6.3c0-0.6-0.4-1-1-1H82.4z" class="ExtSVGElem enabled"></path></g><g _ngcontent-ng-c1741549328=""><path _ngcontent-ng-c1741549328="" variable="leftRearLight" id="ext_rear-left-light" type="Rear Light" side="left" svgClickedVal="rear bumper" d="M101.4,233.3c0,2.1-0.9,3.8-2,3.8H87.7c-1.1,0-2-1.7-2-3.8v-1.9c0-2.1,0.9-3.8,2-3.8 h11.7c1.1,0,2,1.7,2,3.8L101.4,233.3L101.4,233.3z" class="ExtSVGElem enabled"></path></g><g _ngcontent-ng-c1741549328=""><path _ngcontent-ng-c1741549328="" variable="rightRearLight" id="ext_rear-right-light" type="Rear Light" side="right" svgClickedVal="rear bumper" d="M154.7,233.3c0,2.1-0.9,3.8-2,3.8H141c-1.1,0-2-1.7-2-3.8v-1.9c0-2.1,0.9-3.8,2-3.8 h11.7c1.1,0,2,1.7,2,3.8L154.7,233.3L154.7,233.3z" class="ExtSVGElem enabled"></path></g><path _ngcontent-ng-c1741549328="" variable="frontBumper" type="Front Bumper" side="" svgClickedVal="bumper" id="ext_front-bumper" d="M156.4,13.2h-2.3c-1.9,2.3-4.7,3.7-7.9,3.7s-6-1.5-7.9-3.7H98.5c-1.9,2.3-4.7,3.7-7.9,3.7c-3.2,0-6-1.5-7.9-3.7 h-2c-0.5,0-1,0.4-1,1v2.3c0,0.6,0.5,5,1,5h75.7c0.6,0,1-4.4,1-5v-2.3C157.4,13.6,156.9,13.2,156.4,13.2z" class="ExtSVGElem enabled"></path><g _ngcontent-ng-c1741549328=""><path _ngcontent-ng-c1741549328="" variable="leftFrontLight" id="ext_front-left-light" type="Front Light" side="Left" svgClickedVal="front bumper" d="M90.8,2.4c-5.7,0-11.4,4-10.2,4.9c4.4,3.2,4.6,7.3,10.2,7.3c5.7,0,5.7-4.1,10.2-7.3 C101.7,6.7,96.4,2.4,90.8,2.4z" class="ExtSVGElem enabled"></path></g><g _ngcontent-ng-c1741549328=""><path _ngcontent-ng-c1741549328="" variable="rightFrontLight" id="ext_front-right-light" type="Front Light" side="Right" svgClickedVal="front bumper" d="M146.2,2.4c-5.7,0-11.4,4-10.2,4.9c4.4,3.2,4.6,7.3,10.2,7.3c5.7,0,5.7-4.1,10.2-7.3 C157.2,6.7,151.8,2.4,146.2,2.4z" class="ExtSVGElem enabled"></path></g></svg>